<svg xmlns="http://www.w3.org/2000/svg">
  <symbol id="android" viewBox="0 0 24 24">
    <rect width="24" height="24" rx="4" ry="4" fill="currentColor"/>
    <text x="12" y="16" font-size="12" text-anchor="middle" fill="#fff">1</text>
  </symbol>
  <symbol id="email" viewBox="0 0 24 24">
    <rect width="24" height="24" rx="4" ry="4" fill="currentColor"/>
    <text x="12" y="16" font-size="12" text-anchor="middle" fill="#fff">2</text>
  </symbol>
  <symbol id="fb" viewBox="0 0 24 24">
    <rect width="24" height="24" rx="4" ry="4" fill="currentColor"/>
    <text x="12" y="16" font-size="12" text-anchor="middle" fill="#fff">3</text>
  </symbol>
  <symbol id="fb_messenger" viewBox="0 0 24 24">
    <rect width="24" height="24" rx="4" ry="4" fill="currentColor"/>
    <text x="12" y="16" font-size="12" text-anchor="middle" fill="#fff">4</text>
  </symbol>
  <symbol id="github" viewBox="0 0 24 24">
    <rect width="24" height="24" rx="4" ry="4" fill="currentColor"/>
    <text x="12" y="16" font-size="12" text-anchor="middle" fill="#fff">5</text>
  </symbol>
  <symbol id="insta" viewBox="0 0 24 24">
    <rect width="24" height="24" rx="4" ry="4" fill="currentColor"/>
    <text x="12" y="16" font-size="12" text-anchor="middle" fill="#fff">6</text>
  </symbol>
  <symbol id="linkedin" viewBox="0 0 24 24">
    <rect width="24" height="24" rx="4" ry="4" fill="currentColor"/>
    <text x="12" y="16" font-size="12" text-anchor="middle" fill="#fff">7</text>
  </symbol>
  <symbol id="patreon" viewBox="0 0 24 24">
    <rect width="24" height="24" rx="4" ry="4" fill="currentColor"/>
    <text x="12" y="16" font-size="12" text-anchor="middle" fill="#fff">8</text>
  </symbol>
  <symbol id="phone" viewBox="0 0 24 24">
    <rect width="24" height="24" rx="4" ry="4" fill="currentColor"/>
    <text x="12" y="16" font-size="12" text-anchor="middle" fill="#fff">9</text>
  </symbol>
  <symbol id="pinterest" viewBox="0 0 24 24">
    <rect width="24" height="24" rx="4" ry="4" fill="currentColor"/>
    <text x="12" y="16" font-size="12" text-anchor="middle" fill="#fff">10</text>
  </symbol>
  <symbol id="reddit" viewBox="0 0 24 24">
    <rect width="24" height="24" rx="4" ry="4" fill="currentColor"/>
    <text x="12" y="16" font-size="12" text-anchor="middle" fill="#fff">11</text>
  </symbol>
  <symbol id="shopify" viewBox="0 0 24 24">
    <rect width="24" height="24" rx="4" ry="4" fill="currentColor"/>
    <text x="12" y="16" font-size="12" text-anchor="middle" fill="#fff">12</text>
  </symbol>
  <symbol id="signal" viewBox="0 0 24 24">
    <rect width="24" height="24" rx="4" ry="4" fill="currentColor"/>
    <text x="12" y="16" font-size="12" text-anchor="middle" fill="#fff">13</text>
  </symbol>
  <symbol id="skype" viewBox="0 0 24 24">
    <rect width="24" height="24" rx="4" ry="4" fill="currentColor"/>
    <text x="12" y="16" font-size="12" text-anchor="middle" fill="#fff">14</text>
  </symbol>
  <symbol id="snap" viewBox="0 0 24 24">
    <rect width="24" height="24" rx="4" ry="4" fill="currentColor"/>
    <text x="12" y="16" font-size="12" text-anchor="middle" fill="#fff">15</text>
  </symbol>
  <symbol id="twitter" viewBox="0 0 24 24">
    <rect width="24" height="24" rx="4" ry="4" fill="currentColor"/>
    <text x="12" y="16" font-size="12" text-anchor="middle" fill="#fff">16</text>
  </symbol>
</svg>
